<mxfile host="app.diagrams.net" agent="Mozilla/5.0 (Macintosh; Intel Mac OS X 10_15_7) AppleWebKit/537.36 (KHTML, like Gecko) Chrome/129.0.0.0 Safari/537.36" version="24.7.16" pages="2">
  <diagram name="Page-1" id="wiUxrOiLAiwQFGcX1rll">
    <mxGraphModel dx="1028" dy="1004" grid="1" gridSize="10" guides="1" tooltips="1" connect="1" arrows="1" fold="1" page="1" pageScale="1" pageWidth="850" pageHeight="1100" math="0" shadow="0">
      <root>
        <mxCell id="0" />
        <mxCell id="1" parent="0" />
        <mxCell id="m0gbjOFLcM4iHkhA53l5-4" value="AWS Cloud" style="points=[[0,0],[0.25,0],[0.5,0],[0.75,0],[1,0],[1,0.25],[1,0.5],[1,0.75],[1,1],[0.75,1],[0.5,1],[0.25,1],[0,1],[0,0.75],[0,0.5],[0,0.25]];outlineConnect=0;gradientColor=none;html=1;whiteSpace=wrap;fontSize=12;fontStyle=0;container=1;pointerEvents=0;collapsible=0;recursiveResize=0;shape=mxgraph.aws4.group;grIcon=mxgraph.aws4.group_aws_cloud;strokeColor=#232F3E;fillColor=none;verticalAlign=top;align=left;spacingLeft=30;fontColor=#232F3E;dashed=0;" vertex="1" parent="1">
          <mxGeometry x="190" y="205" width="655" height="550" as="geometry" />
        </mxCell>
        <mxCell id="m0gbjOFLcM4iHkhA53l5-7" value="us-east-1" style="points=[[0,0],[0.25,0],[0.5,0],[0.75,0],[1,0],[1,0.25],[1,0.5],[1,0.75],[1,1],[0.75,1],[0.5,1],[0.25,1],[0,1],[0,0.75],[0,0.5],[0,0.25]];outlineConnect=0;gradientColor=none;html=1;whiteSpace=wrap;fontSize=12;fontStyle=0;container=1;pointerEvents=0;collapsible=0;recursiveResize=0;shape=mxgraph.aws4.group;grIcon=mxgraph.aws4.group_region;strokeColor=#00A4A6;fillColor=none;verticalAlign=top;align=left;spacingLeft=30;fontColor=#147EBA;dashed=1;" vertex="1" parent="m0gbjOFLcM4iHkhA53l5-4">
          <mxGeometry x="15" y="30" width="625" height="500" as="geometry" />
        </mxCell>
        <mxCell id="EkXjEMZKgR_ADE4H1dyd-2" value="" style="edgeStyle=orthogonalEdgeStyle;rounded=0;orthogonalLoop=1;jettySize=auto;html=1;" edge="1" parent="m0gbjOFLcM4iHkhA53l5-7" source="m0gbjOFLcM4iHkhA53l5-12" target="m0gbjOFLcM4iHkhA53l5-13">
          <mxGeometry relative="1" as="geometry" />
        </mxCell>
        <mxCell id="m0gbjOFLcM4iHkhA53l5-12" value="" style="sketch=0;points=[[0,0,0],[0.25,0,0],[0.5,0,0],[0.75,0,0],[1,0,0],[0,1,0],[0.25,1,0],[0.5,1,0],[0.75,1,0],[1,1,0],[0,0.25,0],[0,0.5,0],[0,0.75,0],[1,0.25,0],[1,0.5,0],[1,0.75,0]];outlineConnect=0;fontColor=#232F3E;fillColor=#8C4FFF;strokeColor=#ffffff;dashed=0;verticalLabelPosition=bottom;verticalAlign=top;align=center;html=1;fontSize=12;fontStyle=0;aspect=fixed;shape=mxgraph.aws4.resourceIcon;resIcon=mxgraph.aws4.route_53;" vertex="1" parent="m0gbjOFLcM4iHkhA53l5-7">
          <mxGeometry x="40" y="201" width="78" height="78" as="geometry" />
        </mxCell>
        <mxCell id="EkXjEMZKgR_ADE4H1dyd-7" value="" style="edgeStyle=orthogonalEdgeStyle;rounded=0;orthogonalLoop=1;jettySize=auto;html=1;" edge="1" parent="m0gbjOFLcM4iHkhA53l5-7" source="m0gbjOFLcM4iHkhA53l5-13" target="EkXjEMZKgR_ADE4H1dyd-6">
          <mxGeometry relative="1" as="geometry" />
        </mxCell>
        <mxCell id="m0gbjOFLcM4iHkhA53l5-13" value="" style="sketch=0;points=[[0,0,0],[0.25,0,0],[0.5,0,0],[0.75,0,0],[1,0,0],[0,1,0],[0.25,1,0],[0.5,1,0],[0.75,1,0],[1,1,0],[0,0.25,0],[0,0.5,0],[0,0.75,0],[1,0.25,0],[1,0.5,0],[1,0.75,0]];outlineConnect=0;fontColor=#232F3E;fillColor=#8C4FFF;strokeColor=#ffffff;dashed=0;verticalLabelPosition=bottom;verticalAlign=top;align=center;html=1;fontSize=12;fontStyle=0;aspect=fixed;shape=mxgraph.aws4.resourceIcon;resIcon=mxgraph.aws4.cloudfront;" vertex="1" parent="m0gbjOFLcM4iHkhA53l5-7">
          <mxGeometry x="180" y="201" width="78" height="78" as="geometry" />
        </mxCell>
        <mxCell id="EkXjEMZKgR_ADE4H1dyd-5" value="" style="edgeStyle=orthogonalEdgeStyle;rounded=0;orthogonalLoop=1;jettySize=auto;html=1;" edge="1" parent="m0gbjOFLcM4iHkhA53l5-7" source="EkXjEMZKgR_ADE4H1dyd-1">
          <mxGeometry relative="1" as="geometry">
            <mxPoint x="150" y="240" as="targetPoint" />
            <Array as="points">
              <mxPoint x="149" y="305" />
              <mxPoint x="150" y="305" />
              <mxPoint x="150" y="240" />
            </Array>
          </mxGeometry>
        </mxCell>
        <mxCell id="EkXjEMZKgR_ADE4H1dyd-1" value="" style="sketch=0;points=[[0,0,0],[0.25,0,0],[0.5,0,0],[0.75,0,0],[1,0,0],[0,1,0],[0.25,1,0],[0.5,1,0],[0.75,1,0],[1,1,0],[0,0.25,0],[0,0.5,0],[0,0.75,0],[1,0.25,0],[1,0.5,0],[1,0.75,0]];outlineConnect=0;fontColor=#232F3E;fillColor=#DD344C;strokeColor=#ffffff;dashed=0;verticalLabelPosition=bottom;verticalAlign=top;align=center;html=1;fontSize=12;fontStyle=0;aspect=fixed;shape=mxgraph.aws4.resourceIcon;resIcon=mxgraph.aws4.certificate_manager_3;" vertex="1" parent="m0gbjOFLcM4iHkhA53l5-7">
          <mxGeometry x="110" y="350" width="78" height="78" as="geometry" />
        </mxCell>
        <mxCell id="EkXjEMZKgR_ADE4H1dyd-10" value="" style="edgeStyle=orthogonalEdgeStyle;rounded=0;orthogonalLoop=1;jettySize=auto;html=1;" edge="1" parent="m0gbjOFLcM4iHkhA53l5-7" source="EkXjEMZKgR_ADE4H1dyd-6" target="EkXjEMZKgR_ADE4H1dyd-8">
          <mxGeometry relative="1" as="geometry" />
        </mxCell>
        <mxCell id="EkXjEMZKgR_ADE4H1dyd-16" value="" style="edgeStyle=orthogonalEdgeStyle;rounded=0;orthogonalLoop=1;jettySize=auto;html=1;" edge="1" parent="m0gbjOFLcM4iHkhA53l5-7" source="EkXjEMZKgR_ADE4H1dyd-6" target="EkXjEMZKgR_ADE4H1dyd-14">
          <mxGeometry relative="1" as="geometry" />
        </mxCell>
        <mxCell id="EkXjEMZKgR_ADE4H1dyd-6" value="" style="sketch=0;points=[[0,0,0],[0.25,0,0],[0.5,0,0],[0.75,0,0],[1,0,0],[0,1,0],[0.25,1,0],[0.5,1,0],[0.75,1,0],[1,1,0],[0,0.25,0],[0,0.5,0],[0,0.75,0],[1,0.25,0],[1,0.5,0],[1,0.75,0]];outlineConnect=0;fontColor=#232F3E;fillColor=#7AA116;strokeColor=#ffffff;dashed=0;verticalLabelPosition=bottom;verticalAlign=top;align=center;html=1;fontSize=12;fontStyle=0;aspect=fixed;shape=mxgraph.aws4.resourceIcon;resIcon=mxgraph.aws4.s3;" vertex="1" parent="m0gbjOFLcM4iHkhA53l5-7">
          <mxGeometry x="310" y="201" width="78" height="78" as="geometry" />
        </mxCell>
        <mxCell id="EkXjEMZKgR_ADE4H1dyd-9" value="" style="edgeStyle=orthogonalEdgeStyle;rounded=0;orthogonalLoop=1;jettySize=auto;html=1;" edge="1" parent="m0gbjOFLcM4iHkhA53l5-7" source="EkXjEMZKgR_ADE4H1dyd-8" target="EkXjEMZKgR_ADE4H1dyd-6">
          <mxGeometry relative="1" as="geometry">
            <Array as="points">
              <mxPoint x="360" y="320" />
              <mxPoint x="360" y="320" />
            </Array>
          </mxGeometry>
        </mxCell>
        <mxCell id="EkXjEMZKgR_ADE4H1dyd-8" value="" style="sketch=0;points=[[0,0,0],[0.25,0,0],[0.5,0,0],[0.75,0,0],[1,0,0],[0,1,0],[0.25,1,0],[0.5,1,0],[0.75,1,0],[1,1,0],[0,0.25,0],[0,0.5,0],[0,0.75,0],[1,0.25,0],[1,0.5,0],[1,0.75,0]];outlineConnect=0;fontColor=#232F3E;fillColor=#DD344C;strokeColor=#ffffff;dashed=0;verticalLabelPosition=bottom;verticalAlign=top;align=center;html=1;fontSize=12;fontStyle=0;aspect=fixed;shape=mxgraph.aws4.resourceIcon;resIcon=mxgraph.aws4.key_management_service;" vertex="1" parent="m0gbjOFLcM4iHkhA53l5-7">
          <mxGeometry x="310" y="350" width="78" height="78" as="geometry" />
        </mxCell>
        <mxCell id="EkXjEMZKgR_ADE4H1dyd-13" value="" style="edgeStyle=orthogonalEdgeStyle;rounded=0;orthogonalLoop=1;jettySize=auto;html=1;" edge="1" parent="m0gbjOFLcM4iHkhA53l5-7" source="EkXjEMZKgR_ADE4H1dyd-11" target="EkXjEMZKgR_ADE4H1dyd-6">
          <mxGeometry relative="1" as="geometry" />
        </mxCell>
        <mxCell id="EkXjEMZKgR_ADE4H1dyd-11" value="" style="sketch=0;points=[[0,0,0],[0.25,0,0],[0.5,0,0],[0.75,0,0],[1,0,0],[0,1,0],[0.25,1,0],[0.5,1,0],[0.75,1,0],[1,1,0],[0,0.25,0],[0,0.5,0],[0,0.75,0],[1,0.25,0],[1,0.5,0],[1,0.75,0]];outlineConnect=0;fontColor=#232F3E;fillColor=#DD344C;strokeColor=#ffffff;dashed=0;verticalLabelPosition=bottom;verticalAlign=top;align=center;html=1;fontSize=12;fontStyle=0;aspect=fixed;shape=mxgraph.aws4.resourceIcon;resIcon=mxgraph.aws4.identity_and_access_management;" vertex="1" parent="m0gbjOFLcM4iHkhA53l5-7">
          <mxGeometry x="460" y="201" width="78" height="78" as="geometry" />
        </mxCell>
        <mxCell id="EkXjEMZKgR_ADE4H1dyd-17" value="" style="edgeStyle=orthogonalEdgeStyle;rounded=0;orthogonalLoop=1;jettySize=auto;html=1;" edge="1" parent="m0gbjOFLcM4iHkhA53l5-7" source="EkXjEMZKgR_ADE4H1dyd-14" target="EkXjEMZKgR_ADE4H1dyd-15">
          <mxGeometry relative="1" as="geometry" />
        </mxCell>
        <mxCell id="EkXjEMZKgR_ADE4H1dyd-14" value="" style="sketch=0;points=[[0,0,0],[0.25,0,0],[0.5,0,0],[0.75,0,0],[1,0,0],[0,1,0],[0.25,1,0],[0.5,1,0],[0.75,1,0],[1,1,0],[0,0.25,0],[0,0.5,0],[0,0.75,0],[1,0.25,0],[1,0.5,0],[1,0.75,0]];outlineConnect=0;fontColor=#232F3E;fillColor=#ED7100;strokeColor=#ffffff;dashed=0;verticalLabelPosition=bottom;verticalAlign=top;align=center;html=1;fontSize=12;fontStyle=0;aspect=fixed;shape=mxgraph.aws4.resourceIcon;resIcon=mxgraph.aws4.lambda;" vertex="1" parent="m0gbjOFLcM4iHkhA53l5-7">
          <mxGeometry x="310" y="50" width="78" height="78" as="geometry" />
        </mxCell>
        <mxCell id="EkXjEMZKgR_ADE4H1dyd-15" value="" style="sketch=0;points=[[0,0,0],[0.25,0,0],[0.5,0,0],[0.75,0,0],[1,0,0],[0,1,0],[0.25,1,0],[0.5,1,0],[0.75,1,0],[1,1,0],[0,0.25,0],[0,0.5,0],[0,0.75,0],[1,0.25,0],[1,0.5,0],[1,0.75,0]];outlineConnect=0;fontColor=#232F3E;fillColor=#C925D1;strokeColor=#ffffff;dashed=0;verticalLabelPosition=bottom;verticalAlign=top;align=center;html=1;fontSize=12;fontStyle=0;aspect=fixed;shape=mxgraph.aws4.resourceIcon;resIcon=mxgraph.aws4.dynamodb;" vertex="1" parent="m0gbjOFLcM4iHkhA53l5-7">
          <mxGeometry x="147" y="50" width="78" height="78" as="geometry" />
        </mxCell>
        <mxCell id="EkXjEMZKgR_ADE4H1dyd-18" value="&lt;font style=&quot;font-size: 11px;&quot;&gt;A Record&lt;/font&gt;" style="text;html=1;align=center;verticalAlign=middle;whiteSpace=wrap;rounded=0;" vertex="1" parent="m0gbjOFLcM4iHkhA53l5-7">
          <mxGeometry x="118" y="215" width="60" height="30" as="geometry" />
        </mxCell>
        <mxCell id="EkXjEMZKgR_ADE4H1dyd-19" value="&lt;font style=&quot;font-size: 11px;&quot;&gt;TLS/SSL&lt;/font&gt;" style="text;html=1;align=center;verticalAlign=middle;whiteSpace=wrap;rounded=0;" vertex="1" parent="m0gbjOFLcM4iHkhA53l5-7">
          <mxGeometry x="147" y="300" width="60" height="30" as="geometry" />
        </mxCell>
        <mxCell id="EkXjEMZKgR_ADE4H1dyd-20" value="&lt;span style=&quot;color: rgb(0, 0, 0); font-family: Helvetica; font-size: 11px; font-style: normal; font-variant-ligatures: normal; font-variant-caps: normal; font-weight: 400; letter-spacing: normal; orphans: 2; text-align: center; text-indent: 0px; text-transform: none; widows: 2; word-spacing: 0px; -webkit-text-stroke-width: 0px; white-space: normal; background-color: rgb(251, 251, 251); text-decoration-thickness: initial; text-decoration-style: initial; text-decoration-color: initial; display: inline !important; float: none;&quot;&gt;Views Count&lt;/span&gt;" style="text;whiteSpace=wrap;html=1;" vertex="1" parent="m0gbjOFLcM4iHkhA53l5-7">
          <mxGeometry x="235" y="65" width="80" height="40" as="geometry" />
        </mxCell>
        <mxCell id="EkXjEMZKgR_ADE4H1dyd-22" value="&lt;span style=&quot;color: rgb(0, 0, 0); font-family: Helvetica; font-size: 11px; font-style: normal; font-variant-ligatures: normal; font-variant-caps: normal; font-weight: 400; letter-spacing: normal; orphans: 2; text-align: center; text-indent: 0px; text-transform: none; widows: 2; word-spacing: 0px; -webkit-text-stroke-width: 0px; white-space: normal; background-color: rgb(251, 251, 251); text-decoration-thickness: initial; text-decoration-style: initial; text-decoration-color: initial; display: inline !important; float: none;&quot;&gt;IAM&lt;/span&gt;" style="text;whiteSpace=wrap;html=1;" vertex="1" parent="m0gbjOFLcM4iHkhA53l5-7">
          <mxGeometry x="485" y="175" width="80" height="40" as="geometry" />
        </mxCell>
        <mxCell id="EkXjEMZKgR_ADE4H1dyd-23" value="Route 53" style="text;html=1;align=center;verticalAlign=middle;whiteSpace=wrap;rounded=0;" vertex="1" parent="m0gbjOFLcM4iHkhA53l5-7">
          <mxGeometry x="49" y="279" width="60" height="30" as="geometry" />
        </mxCell>
        <mxCell id="EkXjEMZKgR_ADE4H1dyd-24" value="&lt;span style=&quot;color: rgb(0, 0, 0); font-family: Helvetica; font-size: 11px; font-style: normal; font-variant-ligatures: normal; font-variant-caps: normal; font-weight: 400; letter-spacing: normal; orphans: 2; text-align: center; text-indent: 0px; text-transform: none; widows: 2; word-spacing: 0px; -webkit-text-stroke-width: 0px; white-space: normal; background-color: rgb(251, 251, 251); text-decoration-thickness: initial; text-decoration-style: initial; text-decoration-color: initial; display: inline !important; float: none;&quot;&gt;DynamoDB&lt;/span&gt;" style="text;whiteSpace=wrap;html=1;" vertex="1" parent="m0gbjOFLcM4iHkhA53l5-7">
          <mxGeometry x="155" y="128" width="80" height="40" as="geometry" />
        </mxCell>
        <mxCell id="EkXjEMZKgR_ADE4H1dyd-25" value="&lt;span style=&quot;color: rgb(0, 0, 0); font-family: Helvetica; font-size: 11px; font-style: normal; font-variant-ligatures: normal; font-variant-caps: normal; font-weight: 400; letter-spacing: normal; orphans: 2; text-align: center; text-indent: 0px; text-transform: none; widows: 2; word-spacing: 0px; -webkit-text-stroke-width: 0px; white-space: normal; background-color: rgb(251, 251, 251); text-decoration-thickness: initial; text-decoration-style: initial; text-decoration-color: initial; display: inline !important; float: none;&quot;&gt;Lambda&lt;/span&gt;" style="text;whiteSpace=wrap;html=1;" vertex="1" parent="m0gbjOFLcM4iHkhA53l5-7">
          <mxGeometry x="325" y="25" width="80" height="40" as="geometry" />
        </mxCell>
        <mxCell id="EkXjEMZKgR_ADE4H1dyd-26" value="&lt;div style=&quot;text-align: center;&quot;&gt;&lt;span style=&quot;background-color: initial; font-size: 11px;&quot;&gt;Certificate Manager&lt;/span&gt;&lt;/div&gt;" style="text;whiteSpace=wrap;html=1;" vertex="1" parent="m0gbjOFLcM4iHkhA53l5-7">
          <mxGeometry x="108" y="428" width="80" height="40" as="geometry" />
        </mxCell>
        <mxCell id="EkXjEMZKgR_ADE4H1dyd-27" value="&lt;span style=&quot;color: rgb(0, 0, 0); font-family: Helvetica; font-size: 11px; font-style: normal; font-variant-ligatures: normal; font-variant-caps: normal; font-weight: 400; letter-spacing: normal; orphans: 2; text-align: center; text-indent: 0px; text-transform: none; widows: 2; word-spacing: 0px; -webkit-text-stroke-width: 0px; white-space: normal; background-color: rgb(251, 251, 251); text-decoration-thickness: initial; text-decoration-style: initial; text-decoration-color: initial; display: inline !important; float: none;&quot;&gt;KMS&lt;/span&gt;" style="text;whiteSpace=wrap;html=1;" vertex="1" parent="m0gbjOFLcM4iHkhA53l5-7">
          <mxGeometry x="335" y="428" width="80" height="40" as="geometry" />
        </mxCell>
        <mxCell id="EkXjEMZKgR_ADE4H1dyd-28" value="&lt;span style=&quot;color: rgb(0, 0, 0); font-family: Helvetica; font-size: 11px; font-style: normal; font-variant-ligatures: normal; font-variant-caps: normal; font-weight: 400; letter-spacing: normal; orphans: 2; text-align: center; text-indent: 0px; text-transform: none; widows: 2; word-spacing: 0px; -webkit-text-stroke-width: 0px; white-space: normal; background-color: rgb(251, 251, 251); text-decoration-thickness: initial; text-decoration-style: initial; text-decoration-color: initial; display: inline !important; float: none;&quot;&gt;Cloudfront (HTTPS)&lt;/span&gt;" style="text;whiteSpace=wrap;html=1;" vertex="1" parent="m0gbjOFLcM4iHkhA53l5-7">
          <mxGeometry x="165" y="279" width="125" height="40" as="geometry" />
        </mxCell>
        <mxCell id="EkXjEMZKgR_ADE4H1dyd-29" value="&lt;div style=&quot;text-align: center;&quot;&gt;&lt;span style=&quot;background-color: initial; font-size: 11px;&quot;&gt;S3&lt;/span&gt;&lt;/div&gt;" style="text;whiteSpace=wrap;html=1;" vertex="1" parent="m0gbjOFLcM4iHkhA53l5-7">
          <mxGeometry x="365" y="274" width="80" height="40" as="geometry" />
        </mxCell>
        <mxCell id="m0gbjOFLcM4iHkhA53l5-6" value="users" style="sketch=0;outlineConnect=0;gradientColor=none;fontColor=#545B64;strokeColor=none;fillColor=#879196;dashed=0;verticalLabelPosition=bottom;verticalAlign=top;align=center;html=1;fontSize=12;fontStyle=0;aspect=fixed;shape=mxgraph.aws4.illustration_users;pointerEvents=1" vertex="1" parent="1">
          <mxGeometry x="30" y="430" width="100" height="100" as="geometry" />
        </mxCell>
        <mxCell id="m0gbjOFLcM4iHkhA53l5-11" value="" style="edgeStyle=orthogonalEdgeStyle;html=1;endArrow=block;elbow=vertical;startArrow=none;endFill=1;strokeColor=#545B64;rounded=0;" edge="1" parent="1">
          <mxGeometry width="100" relative="1" as="geometry">
            <mxPoint x="130" y="479.5" as="sourcePoint" />
            <mxPoint x="230" y="479.5" as="targetPoint" />
          </mxGeometry>
        </mxCell>
        <mxCell id="EkXjEMZKgR_ADE4H1dyd-31" value="&lt;font style=&quot;font-size: 10px;&quot;&gt;Requests sujanspage.com,&lt;/font&gt;" style="text;html=1;align=center;verticalAlign=middle;whiteSpace=wrap;rounded=0;" vertex="1" parent="1">
          <mxGeometry x="120" y="480" width="60" height="30" as="geometry" />
        </mxCell>
      </root>
    </mxGraphModel>
  </diagram>
  <diagram id="Lap9oTE-x1-zAiSzCLo0" name="Page-2">
    <mxGraphModel dx="1663" dy="1004" grid="1" gridSize="10" guides="1" tooltips="1" connect="1" arrows="1" fold="1" page="1" pageScale="1" pageWidth="850" pageHeight="1100" math="0" shadow="0">
      <root>
        <mxCell id="0" />
        <mxCell id="1" parent="0" />
      </root>
    </mxGraphModel>
  </diagram>
</mxfile>
